<?xml version="1.0" encoding="utf-8"?>
<!-- Generator: Adobe Illustrator 24.3.0, SVG Export Plug-In . SVG Version: 6.00 Build 0)  -->
<svg version="1.1" id="Layer_1" xmlns="http://www.w3.org/2000/svg" xmlns:xlink="http://www.w3.org/1999/xlink" x="0px" y="0px"
	 viewBox="0 0 1080 1080" style="enable-background:new 0 0 1080 1080;" xml:space="preserve">
<style type="text/css">
	.st0{fill:#F6921E;}
	.st1{fill:#26A9E0;}
	.st2{fill:none;stroke:#FFFFFF;stroke-width:12;stroke-linecap:round;stroke-linejoin:round;stroke-miterlimit:10;}
	.st3{font-family:'Montserrat-Bold';}
	.st4{font-size:254.8815px;}
</style>
<circle class="st0" cx="299.71" cy="382.46" r="100.81"/>
<circle class="st1" cx="380.04" cy="307.04" r="26.68"/>
<circle class="st1" cx="299.71" cy="382.46" r="49.52"/>
<path class="st2" d="M361.37,348.08c15,26.87,11.08,61.45-11.75,84.29c-27.56,27.56-72.25,27.56-99.81,0
	c-27.56-27.56-27.56-72.25,0-99.81c24.32-24.32,61.97-27.18,89.43-8.58"/>
<path class="st0" d="M131.73,317.33c-12.57-28.25-48.81-39.55-80.95-25.25c-14.78,6.57-26.1,17.42-32.82,29.96h115.86L131.73,317.33
	z"/>
<polygon class="st0" points="164.78,391.62 18.34,375.86 29.52,401 168.95,401 "/>
<path class="st0" d="M149.9,358.17L11.89,339.3c-1.65,9.16-0.94,18.59,2.49,27.48h139.35L149.9,358.17z"/>
<path class="st0" d="M-114.41,322.04L11.89,339.3c1.07-5.94,3.13-11.76,6.07-17.27H-114.41z"/>
<path class="st0" d="M14.38,366.78h-80.36l84.31,9.07l-3-6.75C14.99,368.34,14.68,367.56,14.38,366.78z"/>
<polygon class="st0" points="-25.44,401 32.98,408.77 29.52,401 "/>
<polygon class="st0" points="181.18,428.48 32.98,408.77 115.01,593.13 254.44,593.13 "/>
<polygon class="st0" points="-73.01,593.13 121.64,608.03 115.01,593.13 "/>
<path class="st0" d="M150.74,673.44c12.57,28.25,48.81,39.55,80.95,25.25c8.71-3.88,16.22-9.25,22.3-15.57l-104.1-11.61
	L150.74,673.44z"/>
<polygon class="st0" points="70.02,662.62 149.89,671.52 145.92,662.62 "/>
<path class="st0" d="M267.13,621.66l-1.15-2.58l-144.34-11.05l7.97,17.92h139.18C268.3,624.5,267.76,623.07,267.13,621.66z"/>
<path class="st0" d="M145.92,662.62h121.44c1.85-4.61,3.07-9.39,3.66-14.21l-136.51-11.43L145.92,662.62z"/>
<polygon class="st0" points="2.81,625.95 134.52,636.98 129.61,625.95 "/>
<text transform="matrix(1 0 0 1 370.2844 602.6204)" class="st0 st3 st4">-Tech</text>
</svg>
