<?xml version="1.0" encoding="utf-8"?>
<!-- Generator: Adobe Illustrator 24.3.0, SVG Export Plug-In . SVG Version: 6.00 Build 0)  -->
<svg version="1.1" xmlns="http://www.w3.org/2000/svg" xmlns:xlink="http://www.w3.org/1999/xlink" x="0px" y="0px"
	 viewBox="0 0 1080 1080" style="enable-background:new 0 0 1080 1080;" xml:space="preserve">
<style type="text/css">
	.st0{display:none;}
	.st1{display:inline;fill:#BCBEC0;}
	.st2{fill:#F7941D;}
	.st3{fill:#27AAE1;}
	.st4{fill:none;stroke:#FFFFFF;stroke-width:12;stroke-linecap:round;stroke-linejoin:round;stroke-miterlimit:10;}
	.st5{font-family:'Montserrat-Medium';}
	.st6{font-size:131.5188px;}
	.st7{display:inline;fill:#F7941D;}
	.st8{display:inline;fill:#27AAE1;}
	.st9{display:inline;fill:none;stroke:#FFFFFF;stroke-width:12;stroke-linecap:round;stroke-linejoin:round;stroke-miterlimit:10;}
	.st10{font-family:'Montserrat-Bold';}
	.st11{font-size:183.4847px;}
</style>
<g id="Layer_2" class="st0">
	<rect class="st1" width="1080" height="1104.73"/>
</g>
<g id="Layer_1">
	<circle class="st2" cx="396.69" cy="458.92" r="72.57"/>
	<circle class="st3" cx="454.52" cy="404.62" r="19.21"/>
	<circle class="st3" cx="396.69" cy="458.92" r="35.65"/>
	<path class="st4" d="M441.08,434.17c10.8,19.34,7.98,44.24-8.46,60.68c-19.84,19.84-52.01,19.84-71.85,0
		c-19.84-19.84-19.84-52.01,0-71.85c17.51-17.51,44.61-19.57,64.38-6.18"/>
	<text transform="matrix(1 0 0 1 337.6435 830.0425)" class="st0 st5 st6">V-Tech</text>
	<g class="st0">
		<path class="st7" d="M229.06,342.92c-23.14,10.29-34.56,35.12-25.51,55.46l97.47,219.08c9.05,20.33,35.14,28.47,58.27,18.18
			c23.14-10.29,34.56-35.12,25.51-55.46L287.33,361.1C278.29,340.77,252.2,332.63,229.06,342.92z"/>
		<polygon class="st7" points="427.58,338.47 427.58,354.76 307.46,356.66 		"/>
		<polygon class="st7" points="432.67,367.8 432.67,384.09 312.55,385.98 		"/>
		<polygon class="st7" points="423.78,352.7 423.78,368.99 303.65,370.89 		"/>
		<circle class="st7" cx="408.26" cy="407.99" r="72.57"/>
		<polygon class="st7" points="363.71,602.6 363.71,618.89 243.59,620.78 		"/>
		<circle class="st8" cx="465.09" cy="352.7" r="19.21"/>
		<circle class="st8" cx="408.26" cy="407.99" r="35.65"/>
		<path class="st9" d="M452.65,383.24c10.8,19.34,7.98,44.24-8.46,60.68c-19.84,19.84-52.01,19.84-71.85,0s-19.84-52.01,0-71.85
			c17.51-17.51,44.61-19.57,64.38-6.18"/>
		<polygon class="st7" points="225.72,376.89 225.72,393.18 105.59,395.08 		"/>
		<polygon class="st7" points="252.25,343.61 252.25,359.9 132.12,361.79 		"/>
		<polygon class="st7" points="246.43,407.87 246.43,424.16 75.9,426.06 		"/>
		<polygon class="st7" points="299.5,569.63 299.5,585.92 179.37,587.82 		"/>
		<polygon class="st7" points="341,584.41 341,600.7 220.87,602.6 		"/>
		<circle class="st7" cx="776.26" cy="232.92" r="72.57"/>
		<circle class="st8" cx="776.26" cy="232.92" r="35.65"/>
		<path class="st9" d="M820.65,208.17c10.8,19.34,7.98,44.24-8.46,60.68c-19.84,19.84-52.01,19.84-71.85,0s-19.84-52.01,0-71.85
			c17.51-17.51,44.61-19.57,64.38-6.18"/>
		<path class="st7" d="M669.26,217.33H569.5c0.5,2.02,1.18,4.02,2.05,5.98l5.76,12.94l95.84-10.19L669.26,217.33z"/>
		<path class="st7" d="M655.34,186.03c-9.05-20.33-35.14-28.47-58.27-18.18c-16.28,7.24-26.74,21.68-28.38,36.68l89.84-11.32
			L655.34,186.03z"/>
		<path class="st7" d="M568.69,204.53l-101.6,12.8H569.5C568.46,213.12,568.22,208.8,568.69,204.53z"/>
		<polygon class="st7" points="532.99,240.96 579.4,240.96 577.3,236.24 		"/>
		<polygon class="st7" points="679.77,240.96 579.4,240.96 590.61,266.15 686.68,256.49 		"/>
		<polygon class="st7" points="501.92,275.06 594.58,275.06 590.61,266.15 		"/>
		<path class="st7" d="M727.3,460.57c9.37-4.17,16.81-10.72,21.76-18.39h-80.13l0.09,0.21C678.07,462.72,704.16,470.86,727.3,460.57
			z"/>
		<path class="st7" d="M664.69,432.64l91.2-14.09c-0.07-2.03-0.31-4.05-0.72-6.06h-99.44L664.69,432.64z"/>
		<polygon class="st7" points="694.95,275.06 594.58,275.06 652.14,404.44 748.64,395.75 		"/>
		<polygon class="st7" points="668.93,442.18 664.69,432.64 602.98,442.18 		"/>
		<polygon class="st7" points="562.56,412.49 655.72,412.49 652.14,404.44 		"/>
	</g>
	<path class="st2" d="M275.76,412.03c-9.05-20.33-35.14-28.47-58.27-18.18c-10.64,4.73-18.79,12.54-23.62,21.57h83.41L275.76,412.03
		z"/>
	<polygon class="st2" points="299.56,465.51 194.14,454.16 202.19,472.26 302.56,472.26 	"/>
	<path class="st2" d="M288.85,441.43l-99.35-13.58c-1.19,6.6-0.68,13.38,1.79,19.78H291.6L288.85,441.43z"/>
	<path class="st2" d="M98.58,415.42l90.92,12.43c0.77-4.28,2.25-8.47,4.37-12.43H98.58z"/>
	<path class="st2" d="M191.29,447.63h-57.85l60.7,6.53l-2.16-4.86C191.73,448.75,191.5,448.19,191.29,447.63z"/>
	<polygon class="st2" points="162.62,472.26 204.68,477.85 202.19,472.26 	"/>
	<polygon class="st2" points="311.36,492.04 204.68,477.85 263.73,610.58 364.1,610.58 	"/>
	<polygon class="st2" points="128.38,610.58 268.5,621.3 263.73,610.58 	"/>
	<path class="st2" d="M289.45,668.39c9.05,20.33,35.14,28.47,58.27,18.18c6.27-2.79,11.68-6.66,16.05-11.21l-74.94-8.35
		L289.45,668.39z"/>
	<polygon class="st2" points="231.34,660.6 288.84,667.01 285.98,660.6 	"/>
	<path class="st2" d="M373.24,631.11l-0.83-1.86L268.5,621.3l5.74,12.9h100.19C374.08,633.16,373.69,632.13,373.24,631.11z"/>
	<path class="st2" d="M285.98,660.6h87.43c1.33-3.32,2.21-6.76,2.64-10.23l-98.27-8.23L285.98,660.6z"/>
	<polygon class="st2" points="182.96,634.2 277.77,642.14 274.24,634.2 	"/>
	<text transform="matrix(1 0 0 1 447.497 617.4042)" class="st2 st10 st11">-Tech</text>
</g>
</svg>
